<?xml version="1.0" encoding="UTF-8" standalone="no"?>
<svg
   xmlns:dc="http://purl.org/dc/elements/1.1/"
   xmlns:cc="http://creativecommons.org/ns#"
   xmlns:rdf="http://www.w3.org/1999/02/22-rdf-syntax-ns#"
   xmlns:svg="http://www.w3.org/2000/svg"
   xmlns="http://www.w3.org/2000/svg"
   xmlns:sodipodi="http://sodipodi.sourceforge.net/DTD/sodipodi-0.dtd"
   xmlns:inkscape="http://www.inkscape.org/namespaces/inkscape"
   width="89.288231mm"
   height="13.457498mm"
   viewBox="0 0 89.288231 13.457498"
   version="1.1"
   id="svg8"
   inkscape:version="1.0.1 (3bc2e813f5, 2020-09-07)"
   sodipodi:docname="WoM Logo SVG.svg">
  <defs
     id="defs2" />
  <sodipodi:namedview
     id="base"
     pagecolor="#ffffff"
     bordercolor="#666666"
     borderopacity="1.0"
     inkscape:pageopacity="0.0"
     inkscape:pageshadow="2"
     inkscape:zoom="0.7"
     inkscape:cx="444.97821"
     inkscape:cy="328.50977"
     inkscape:document-units="mm"
     inkscape:current-layer="layer1"
     inkscape:document-rotation="0"
     showgrid="false"
     inkscape:window-width="1267"
     inkscape:window-height="1198"
     inkscape:window-x="3437"
     inkscape:window-y="1258"
     inkscape:window-maximized="0" />
  <metadata
     id="metadata5">
    <rdf:RDF>
      <cc:Work
         rdf:about="">
        <dc:format>image/svg+xml</dc:format>
        <dc:type
           rdf:resource="http://purl.org/dc/dcmitype/StillImage" />
        <dc:title></dc:title>
      </cc:Work>
    </rdf:RDF>
  </metadata>
  <g
     inkscape:label="Layer 1"
     inkscape:groupmode="layer"
     id="layer1"
     transform="translate(-15.067121,-9.3074224)">
    <path
       d="m 60.576974,11.547636 c -3.973897,-0.0063 -5.970102,4.795556 -3.163808,7.608521 2.806294,2.812966 7.612863,0.828168 7.616012,-3.145733 0.0019,-2.461406 -1.990801,-4.458894 -4.452204,-4.462788 m 0,7.796649 c -2.980042,0.0063 -4.476267,-3.59622 -2.369313,-5.703174 2.106954,-2.106954 5.709461,-0.610729 5.703174,2.369313 -0.0019,1.840434 -1.493427,3.331916 -3.333861,3.333861 m 8.618648,-9.8075494 c -1.326862,5e-7 -2.402496,1.0756344 -2.402496,2.4024964 v 2.264909 h -1.178318 v 1.058369 h 1.178318 v 4.939053 c 0,1.213596 -0.747914,1.520523 -1.605193,1.481717 v 1.058368 c 1.615776,0.186979 2.727063,-0.762025 2.727063,-2.511861 v -4.963749 h 1.834506 v -1.058369 h -1.834506 v -2.268437 c 0,-1.707501 2.561253,-1.707501 2.561253,0 h 1.12187 c 0,-1.326862 -1.075635,-2.4024965 -2.402497,-2.4024964 M 41.385221,9.3074224 h 1.121871 V 20.201563 h -1.121871 z m -9.80755,2.2402136 c -3.972201,10e-7 -5.961578,4.801485 -3.154258,7.611026 2.80732,2.809541 7.610375,0.823962 7.613518,-3.148238 0.002,-2.464159 -1.9951,-4.462789 -4.45926,-4.462788 m 0,7.796649 c -2.979197,0.0031 -4.472002,-3.599189 -2.364535,-5.704428 2.107467,-2.10524 5.708214,-0.608625 5.701924,2.370567 -0.0019,1.842383 -1.495006,3.335444 -3.337389,3.337389 M 51.372694,13.05052 c -3.230069,-3.6568618 -9.138092,-0.222332 -7.568547,4.391332 1.569546,4.613665 8.346341,3.732883 8.676306,-1.135085 V 9.3074224 H 51.36211 Z m -3.340917,6.293765 c -2.978347,-7e-6 -4.467736,-3.602152 -2.359759,-5.705677 2.107978,-2.103526 5.706966,-0.606525 5.700676,2.371816 10e-7,1.844568 -1.49635,3.339339 -3.340917,3.337389 m -11.31749,-4.3252 v 5.17895 h 1.121871 v -5.17895 c 0.0019,-1.289037 1.04643,-2.333524 2.335467,-2.335467 h 0.144643 v -1.125398 h -0.144643 c -1.910577,0.0019 -3.458921,1.550288 -3.460866,3.460865 M 100.6193,11.805172 c -2.100577,-0.07282 -3.822964,1.649577 -3.750144,3.750153 v 4.646238 h 1.121867 v -4.646238 c -0.133087,-3.627966 5.379067,-3.627966 5.245977,0 v 4.621543 h 1.11835 v -4.621543 c 0,-2.208462 -1.53464,-3.750153 -3.73605,-3.750153 m -8.971424,-0.261067 c -3.49561,-0.01464 -5.65007,3.81299 -3.82424,6.793774 1.82583,2.980783 6.21445,2.800557 7.78959,-0.320086 h -1.30885 c -1.76086,2.333559 -5.4586,1.432153 -5.94803,-1.449965 h 7.76137 v -0.557407 c 0,-2.468055 -2.00179,-4.468263 -4.46984,-4.466316 m -3.29153,3.901852 c 0.62227,-3.714666 5.96078,-3.714666 6.58305,0 z M 22.944911,12.41197 c -0.10002,0.09863 -0.190937,0.206075 -0.271648,0.321039 -0.498736,-0.637471 -1.280994,-0.986316 -2.088514,-0.931364 -0.688555,0.05101 -1.322014,0.395365 -1.739252,0.945476 -0.08333,-0.12034 -0.177829,-0.232554 -0.282232,-0.335151 -0.645605,-0.635021 -1.689862,-0.92078 -3.019879,-0.857278 l -0.476265,0.0247 v 5.842195 c 0,1.686334 1.485244,3.055157 3.312693,3.055157 0.882572,0.0037 1.732735,-0.332305 2.374274,-0.93842 0.64264,0.603543 1.492674,0.936988 2.374274,0.931364 1.82745,0 3.312693,-1.368823 3.312693,-3.055157 v -5.835139 l -0.472737,-0.0247 c -1.333545,-0.0635 -2.377802,0.229313 -3.023407,0.857279 m 2.497751,5.009612 c 0,1.132454 -1.037202,2.056763 -2.3143,2.056763 -0.778878,0.0086 -1.512732,-0.364247 -1.965038,-0.998395 L 20.870509,18.06366 c -0.05605,-0.08182 -0.176792,-0.08182 -0.232841,0 l -0.278704,0.416291 c -0.457489,0.634281 -1.197253,1.003504 -1.97915,0.987811 -1.277098,0 -2.314299,-0.924308 -2.314299,-2.056763 V 12.54603 c 0.650448,-0.03027 1.289776,0.176567 1.799227,0.582103 0.317478,0.331854 0.476845,0.784251 0.437459,1.241819 v 2.674145 c 0.551398,0 0.998394,-0.446997 0.998394,-0.998395 v -1.799226 c 0,-1.93799 2.906986,-1.93799 2.906986,0 v 1.799226 c -0.002,0.552209 0.446186,1.000357 0.998395,0.998395 v -2.674145 c -0.04032,-0.457038 0.117735,-0.90936 0.433931,-1.241819 0.510994,-0.405205 1.151284,-0.611952 1.802755,-0.582103 z"
       fill="#ffffff"
       data-name="Layer 1"
       id="path833"
       style="stroke-width:0.35279"
       sodipodi:nodetypes="cssccscccsccccsccsccccscccccccccssccscccscccccscccccccccccccccccccsccsccccscccccccccccscccscccsccccccsccccssscccccs" />
    <path
       d="m 82.740754,19.531245 c -0.09902,-0.09954 -0.189872,-0.206904 -0.271654,-0.321039 -0.96442,1.260874 -2.863345,1.260874 -3.827767,0 -0.08223,0.121179 -0.176813,0.233497 -0.282231,0.33515 -0.645605,0.627966 -1.689862,0.920781 -3.019878,0.857279 l -0.476266,-0.02469 V 14.52164 c 0,-1.686336 1.488771,-3.055159 3.312695,-3.055159 0.882571,-0.0037 1.732732,0.332306 2.374273,0.93842 0.643422,-0.602303 1.49294,-0.935547 2.374268,-0.931364 1.82745,0 3.31623,1.368823 3.31623,3.055157 v 5.835139 l -0.47627,0.0247 c -1.33002,0.0635 -2.3778,-0.229313 -3.0234,-0.857278 m 2.50127,-5.009612 c 0,-1.132454 -1.04073,-2.056763 -2.31783,-2.056763 -0.77887,-0.0086 -1.512727,0.36424 -1.965034,0.998385 l -0.289285,0.416291 c -0.05763,0.08167 -0.178745,0.08167 -0.236371,0 l -0.289288,-0.416291 c -0.457673,-0.627569 -1.191937,-0.993385 -1.968563,-0.980755 -1.273572,0 -2.314303,0.924308 -2.314303,2.056763 v 4.857912 c 0.651516,0.03017 1.291916,-0.176612 1.802758,-0.582103 0.316195,-0.332459 0.474252,-0.784781 0.433929,-1.241819 v -2.674145 c 0.55221,-0.002 1.000356,0.446186 0.998395,0.998395 v 1.799226 c 0,1.93799 2.906985,1.93799 2.906985,0 v -1.799226 c 0,-0.551398 0.446998,-0.998395 0.998397,-0.998395 v 2.674145 c -0.0394,0.457568 0.11998,0.909965 0.43746,1.241819 0.35279,0.352789 0.99486,0.557407 1.80275,0.582103 z"
       fill="#ffffff"
       data-name="Layer 1"
       id="path833-3"
       style="stroke-width:0.35279"
       sodipodi:nodetypes="ccccccscccscccsccccccscccccsssccccs" />
  </g>
</svg>
